<mxfile host="app.diagrams.net" modified="2022-11-29T01:59:31.092Z" agent="5.0 (Windows NT 10.0; Win64; x64) AppleWebKit/537.36 (KHTML, like Gecko) Chrome/107.0.0.0 Safari/537.36" etag="Bs5NftqPnENMcagvegu_" version="20.6.0" type="github">
  <diagram id="LEARNl6iLK1Xej2Jr043" name="Page-1">
    <mxGraphModel dx="2205" dy="974" grid="0" gridSize="10" guides="1" tooltips="1" connect="1" arrows="1" fold="1" page="1" pageScale="1" pageWidth="2339" pageHeight="3300" math="0" shadow="0">
      <root>
        <mxCell id="0" />
        <mxCell id="1" parent="0" />
        <mxCell id="KA4gvwWlRoADxdi5hl8j-6" value="&lt;p style=&quot;margin: 4px 0px 0px; text-align: center;&quot;&gt;&lt;font style=&quot;&quot;&gt;&lt;b style=&quot;&quot;&gt;&lt;font style=&quot;font-size: 18px;&quot;&gt;Imu_tclDaischApplication&lt;/font&gt;&lt;/b&gt;&lt;br&gt;&lt;/font&gt;&lt;/p&gt;&lt;hr size=&quot;1&quot; style=&quot;font-size: 15px&quot;&gt;&lt;p style=&quot;margin: 0px 0px 0px 4px ; font-size: 15px&quot;&gt;- st_json_data_:&amp;nbsp;Imu_tstJsonData&lt;/p&gt;&lt;p style=&quot;margin: 0px 0px 0px 4px ; font-size: 15px&quot;&gt;&lt;font style=&quot;font-size: 15px&quot;&gt;- imuCan:CanFd_tclCanFd&lt;/font&gt;&lt;/p&gt;&lt;p style=&quot;margin: 0px 0px 0px 4px ; font-size: 15px&quot;&gt;&lt;font style=&quot;font-size: 15px&quot;&gt;- po_imu_ap_providerservice_:ImuProviderService*&lt;/font&gt;&lt;/p&gt;&lt;p style=&quot;margin: 0px 0px 0px 4px ; font-size: 15px&quot;&gt;&lt;font style=&quot;font-size: 15px&quot;&gt;- po_startMonitor_ap_providerService_:StartMonitorProviderService*&lt;/font&gt;&lt;/p&gt;&lt;p style=&quot;margin: 0px 0px 0px 4px ; font-size: 15px&quot;&gt;&lt;font style=&quot;font-size: 15px&quot;&gt;-&amp;nbsp;po_fsm_ap_providerservice_:Fsm_tclRxServiceProvider*&lt;/font&gt;&lt;/p&gt;&lt;p style=&quot;margin: 0px 0px 0px 4px ; font-size: 15px&quot;&gt;&lt;font style=&quot;font-size: 15px&quot;&gt;- st_fsm_counter_:Imu_tstFsmCounter&lt;/font&gt;&lt;/p&gt;&lt;p style=&quot;margin: 0px 0px 0px 4px ; font-size: 15px&quot;&gt;&lt;font style=&quot;font-size: 15px&quot;&gt;- st_fsm_context_:Imu_tstFsmContext&lt;/font&gt;&lt;/p&gt;&lt;p style=&quot;margin: 0px 0px 0px 4px ; font-size: 15px&quot;&gt;&lt;font style=&quot;font-size: 15px&quot;&gt;- st_driver_imu_msg:tstDriverImuMsg&lt;/font&gt;&lt;/p&gt;&lt;p style=&quot;margin: 0px 0px 0px 4px ; font-size: 15px&quot;&gt;&lt;font color=&quot;#ff0000&quot;&gt;-&amp;nbsp;qo_imu_queue_:std::queue&amp;lt;tstDriverImuMsg&amp;gt;&lt;/font&gt;&lt;/p&gt;&lt;p style=&quot;margin: 0px 0px 0px 4px ; font-size: 15px&quot;&gt;&lt;font color=&quot;#ff0000&quot;&gt;-&amp;nbsp;po_mutex_imu_queue_:shared_ptr&lt;/font&gt;&lt;/p&gt;&lt;p style=&quot;margin: 0px 0px 0px 4px ; font-size: 15px&quot;&gt;&lt;font color=&quot;#ff0000&quot;&gt;-&amp;nbsp;st_driver_imu_msg_:tstDriverImuMsg&lt;/font&gt;&lt;/p&gt;&lt;hr size=&quot;1&quot; style=&quot;font-size: 15px&quot;&gt;&lt;p style=&quot;margin: 0px 0px 0px 4px; font-size: 15px;&quot;&gt;&lt;font style=&quot;font-size: 15px&quot;&gt;+&amp;nbsp;Imu_tclDaischApplication()&lt;/font&gt;&lt;/p&gt;&lt;p style=&quot;margin: 0px 0px 0px 4px ; font-size: 15px&quot;&gt;&lt;font style=&quot;font-size: 15px&quot;&gt;+&amp;nbsp;~Imu_tclDaischApplication()&lt;/font&gt;&lt;/p&gt;&lt;p style=&quot;margin: 0px 0px 0px 4px ; font-size: 15px&quot;&gt;&lt;font style=&quot;font-size: 15px&quot;&gt;+&amp;nbsp;u16GetCycleTime():void&lt;/font&gt;&lt;/p&gt;&lt;p style=&quot;margin: 0px 0px 0px 4px ; font-size: 15px&quot;&gt;&lt;font style=&quot;font-size: 15px&quot;&gt;+&amp;nbsp;vCanFdSDataRecieved():void&lt;/font&gt;&lt;/p&gt;&lt;p style=&quot;margin: 0px 0px 0px 4px ; font-size: 15px&quot;&gt;&lt;font color=&quot;#ff0000&quot; style=&quot;font-size: 15px&quot;&gt;+&amp;nbsp;vInsStatusFpsMonitor():void&lt;/font&gt;&lt;/p&gt;&lt;p style=&quot;margin: 0px 0px 0px 4px;&quot;&gt;&lt;span style=&quot;background-color: initial;&quot;&gt;&lt;span style=&quot;font-size: 15px;&quot;&gt;&lt;font color=&quot;#ff0000&quot;&gt;+ vLatLonFpsMonitor():void&lt;/font&gt;&lt;/span&gt;&lt;/span&gt;&lt;/p&gt;&lt;p style=&quot;margin: 0px 0px 0px 4px ; font-size: 15px&quot;&gt;&lt;font color=&quot;#ff0000&quot; style=&quot;font-size: 15px&quot;&gt;+ vAltitudeFpsMonitor():void&lt;/font&gt;&lt;/p&gt;&lt;p style=&quot;margin: 0px 0px 0px 4px ; font-size: 15px&quot;&gt;&lt;font color=&quot;#ff0000&quot; style=&quot;font-size: 15px&quot;&gt;+&amp;nbsp;vHeadingPitchRollFpsMonitor:void&lt;/font&gt;&lt;/p&gt;&lt;span style=&quot;font-size: medium;&quot;&gt;&amp;nbsp;-&amp;nbsp;vFsmHandler():void&lt;/span&gt;&lt;br style=&quot;font-size: medium;&quot;&gt;&lt;span style=&quot;font-size: medium;&quot;&gt;&amp;nbsp;- vUpdateFaultCount():void&lt;/span&gt;&lt;p style=&quot;margin: 0px 0px 0px 4px ; font-size: 15px&quot;&gt;&lt;font color=&quot;#ff0000&quot; style=&quot;font-size: 15px&quot;&gt;-&amp;nbsp;threadAct(std::unique_ptr&amp;lt;ImuProviderService&amp;gt; po_imu_ap_providerservice)&lt;/font&gt;&lt;/p&gt;&lt;p style=&quot;margin: 0px 0px 0px 4px ; font-size: 15px&quot;&gt;&lt;br&gt;&lt;/p&gt;" style="verticalAlign=top;align=left;overflow=fill;fontSize=12;fontFamily=Helvetica;html=1;fillColor=#3399FF;" parent="1" vertex="1">
          <mxGeometry x="729" y="371" width="542" height="647" as="geometry" />
        </mxCell>
        <mxCell id="KA4gvwWlRoADxdi5hl8j-19" value="" style="endArrow=open;endSize=12;dashed=1;html=1;rounded=0;fontSize=15;" parent="1" edge="1">
          <mxGeometry width="160" relative="1" as="geometry">
            <mxPoint x="718" y="520" as="sourcePoint" />
            <mxPoint x="644" y="520" as="targetPoint" />
            <Array as="points" />
          </mxGeometry>
        </mxCell>
        <mxCell id="KA4gvwWlRoADxdi5hl8j-21" value="" style="endArrow=open;endSize=12;dashed=1;html=1;rounded=0;fontSize=15;exitX=0;exitY=0.755;exitDx=0;exitDy=0;exitPerimeter=0;" parent="1" edge="1" target="XA2b0viagFyKYsldvcV_-2" source="KA4gvwWlRoADxdi5hl8j-6">
          <mxGeometry width="160" relative="1" as="geometry">
            <mxPoint x="718" y="887" as="sourcePoint" />
            <mxPoint x="644" y="887" as="targetPoint" />
            <Array as="points" />
          </mxGeometry>
        </mxCell>
        <mxCell id="KA4gvwWlRoADxdi5hl8j-22" value="" style="endArrow=open;endSize=12;dashed=1;html=1;rounded=0;fontSize=15;exitX=0.442;exitY=0;exitDx=0;exitDy=0;exitPerimeter=0;" parent="1" source="KA4gvwWlRoADxdi5hl8j-6" edge="1">
          <mxGeometry width="160" relative="1" as="geometry">
            <mxPoint x="705" y="329" as="sourcePoint" />
            <mxPoint x="969" y="280" as="targetPoint" />
            <Array as="points" />
          </mxGeometry>
        </mxCell>
        <mxCell id="XA2b0viagFyKYsldvcV_-1" value="&lt;p style=&quot;margin: 4px 0px 0px ; text-align: center&quot;&gt;&lt;font style=&quot;font-size: 18px&quot;&gt;&lt;b&gt;CanFd_tclCanFd&lt;/b&gt;&lt;br&gt;&lt;/font&gt;&lt;/p&gt;&lt;hr size=&quot;1&quot; style=&quot;font-size: 15px&quot;&gt;&lt;p style=&quot;margin: 0px 0px 0px 4px ; font-size: 15px&quot;&gt;&lt;span&gt;- u32_m_channelId:uint32_t&lt;/span&gt;&lt;br&gt;&lt;/p&gt;&lt;p style=&quot;margin: 0px 0px 0px 4px ; font-size: 15px&quot;&gt;-&amp;nbsp;u32_m_instance:uint32_t&lt;/p&gt;&lt;p style=&quot;margin: 0px 0px 0px 4px ; font-size: 15px&quot;&gt;-&amp;nbsp;m_canfdReadMutex:std::mutex&lt;/p&gt;&lt;p style=&quot;margin: 0px 0px 0px 4px ; font-size: 15px&quot;&gt;-&amp;nbsp;mproxy_can:std::shared_ptr&amp;lt;CanFdRxProxy&amp;gt;&lt;/p&gt;&lt;p style=&quot;margin: 0px 0px 0px 4px ; font-size: 15px&quot;&gt;-&amp;nbsp;m_canSendMutex:std::mutex&lt;/p&gt;&amp;nbsp;-&amp;nbsp;&lt;font style=&quot;font-size: 15px&quot;&gt;CanRawDataRecievedHandler:callbackFunc&lt;/font&gt;&lt;br&gt;&lt;hr size=&quot;1&quot; style=&quot;font-size: 15px&quot;&gt;&lt;p style=&quot;margin: 0px 0px 0px 4px ; font-size: 15px&quot;&gt;+&amp;nbsp;vInit(uint8_t&amp;nbsp; u8_channelId):void&lt;/p&gt;&lt;p style=&quot;margin: 0px 0px 0px 4px ; font-size: 15px&quot;&gt;+&amp;nbsp;vRegisterRxEventCallBackFunc(callbackFunc handler):void&lt;/p&gt;&lt;p style=&quot;margin: 0px 0px 0px 4px&quot;&gt;&lt;span&gt;&lt;span style=&quot;font-size: 15px&quot;&gt;+ vVehicleVCU621CanMehodSend():void&lt;/span&gt;&lt;/span&gt;&lt;br&gt;&lt;/p&gt;&lt;p style=&quot;margin: 0px 0px 0px 4px ; font-size: 15px&quot;&gt;+&amp;nbsp;vVehicleVCU721CanMehodSend():void&lt;/p&gt;&lt;p style=&quot;margin: 0px 0px 0px 4px ; font-size: 15px&quot;&gt;+&amp;nbsp;vPackageMethodVCU721CanData():void&lt;/p&gt;&lt;p style=&quot;margin: 0px 0px 0px 4px ; font-size: 15px&quot;&gt;+&amp;nbsp;vPackageMethodVCU621CanData():void&lt;/p&gt;&lt;p style=&quot;margin: 0px 0px 0px 4px ; font-size: 15px&quot;&gt;-&amp;nbsp;vCanFdDataSEventCallback():void&lt;/p&gt;&lt;p style=&quot;margin: 0px 0px 0px 4px ; font-size: 15px&quot;&gt;-&amp;nbsp;vServiceAvailabilityCallback():void&lt;/p&gt;&lt;p style=&quot;margin: 0px 0px 0px 4px ; font-size: 15px&quot;&gt;&lt;font style=&quot;font-size: 15px&quot;&gt;&lt;br&gt;&lt;/font&gt;&lt;/p&gt;&lt;p style=&quot;margin: 0px 0px 0px 4px ; font-size: 15px&quot;&gt;&lt;br&gt;&lt;/p&gt;" style="verticalAlign=top;align=left;overflow=fill;fontSize=12;fontFamily=Helvetica;html=1;fillColor=#3399FF;" vertex="1" parent="1">
          <mxGeometry x="215" y="371" width="429" height="321" as="geometry" />
        </mxCell>
        <mxCell id="XA2b0viagFyKYsldvcV_-2" value="&lt;p style=&quot;margin: 4px 0px 0px ; text-align: center&quot;&gt;&lt;font style=&quot;font-size: 18px&quot;&gt;&lt;b&gt;Imu_tstJsonData&lt;/b&gt;&lt;br&gt;&lt;/font&gt;&lt;/p&gt;&lt;hr size=&quot;1&quot;&gt;&lt;p style=&quot;margin: 0px 0px 0px 4px&quot;&gt;&lt;font size=&quot;3&quot;&gt;- i_cycle_time_ms:int&lt;br&gt;&lt;/font&gt;&lt;/p&gt;&lt;p style=&quot;margin: 0px 0px 0px 4px&quot;&gt;&lt;font size=&quot;3&quot;&gt;- i_instance_id:int&lt;/font&gt;&lt;/p&gt;&lt;p style=&quot;margin: 0px 0px 0px 4px&quot;&gt;&lt;font size=&quot;3&quot;&gt;-&amp;nbsp;i_channel_id:int&lt;/font&gt;&lt;/p&gt;&lt;font size=&quot;3&quot;&gt;&lt;br&gt;&lt;/font&gt;&lt;p style=&quot;margin: 0px 0px 0px 4px&quot;&gt;&lt;font size=&quot;3&quot;&gt;&lt;br&gt;&lt;/font&gt;&lt;/p&gt;&lt;p style=&quot;margin: 0px 0px 0px 4px&quot;&gt;&lt;font size=&quot;3&quot;&gt;&lt;br&gt;&lt;/font&gt;&lt;/p&gt;&lt;p style=&quot;margin: 0px 0px 0px 4px ; font-size: 15px&quot;&gt;&lt;br&gt;&lt;/p&gt;" style="verticalAlign=top;align=left;overflow=fill;fontSize=12;fontFamily=Helvetica;html=1;fillColor=#3399FF;" vertex="1" parent="1">
          <mxGeometry x="215" y="809" width="430" height="112" as="geometry" />
        </mxCell>
        <mxCell id="XA2b0viagFyKYsldvcV_-3" value="&lt;p style=&quot;margin: 4px 0px 0px ; text-align: center&quot;&gt;&lt;font&gt;&lt;b&gt;&lt;font style=&quot;font-size: 18px&quot;&gt;Component_tclComponentBase&lt;/font&gt;&lt;/b&gt;&lt;br&gt;&lt;/font&gt;&lt;/p&gt;&lt;hr size=&quot;1&quot; style=&quot;font-size: 15px&quot;&gt;&lt;p style=&quot;margin: 0px 0px 0px 4px&quot;&gt;&lt;font style=&quot;font-size: 14px&quot;&gt;+ Component_tclComponentBase()&lt;/font&gt;&lt;/p&gt;&lt;p style=&quot;margin: 0px 0px 0px 4px&quot;&gt;&lt;font size=&quot;3&quot;&gt;+ ~Component_tclComponentBase()&lt;/font&gt;&lt;/p&gt;&lt;font size=&quot;3&quot;&gt;&lt;font&gt;&amp;nbsp;+ boInitialize(const char* c_json_file_path):&amp;nbsp;bool&lt;br&gt;&amp;nbsp;+ boProcess(const uint16_t u16_cycletime_ms):bool&lt;br&gt;&amp;nbsp;+&amp;nbsp;boReadJson(const char* c_json_file_path, Json::Value &amp;amp;json_root):bool&lt;br&gt;&lt;/font&gt;&lt;font&gt;&amp;nbsp;- boInit():bool&lt;br&gt;&amp;nbsp;- boProc():bool&lt;br&gt;&amp;nbsp;- vSentOutApEvent():void&lt;br&gt;&amp;nbsp;- vRegisterApService():void&lt;br&gt;&amp;nbsp;- boParameterParser(const char* c_json_file_path):bool&lt;br&gt;&lt;/font&gt;&lt;/font&gt;&lt;br&gt;&lt;p style=&quot;margin: 0px 0px 0px 4px ; font-size: 15px&quot;&gt;&lt;br&gt;&lt;/p&gt;" style="verticalAlign=top;align=left;overflow=fill;fontSize=12;fontFamily=Helvetica;html=1;fillColor=#3399FF;" vertex="1" parent="1">
          <mxGeometry x="729" y="47" width="531" height="236" as="geometry" />
        </mxCell>
        <mxCell id="XA2b0viagFyKYsldvcV_-4" value="&lt;p style=&quot;margin: 4px 0px 0px ; text-align: center&quot;&gt;&lt;font&gt;&lt;span style=&quot;font-size: 18px&quot;&gt;&lt;b&gt;ServerStartMonitor&lt;/b&gt;&lt;/span&gt;&lt;br&gt;&lt;/font&gt;&lt;/p&gt;&lt;hr size=&quot;1&quot; style=&quot;font-size: 15px&quot;&gt;&lt;p style=&quot;margin: 0px 0px 0px 4px&quot;&gt;&lt;br&gt;&lt;/p&gt;&lt;br&gt;&lt;p style=&quot;margin: 0px 0px 0px 4px ; font-size: 15px&quot;&gt;&lt;font style=&quot;font-size: 15px&quot;&gt;&lt;br&gt;&lt;/font&gt;&lt;/p&gt;&lt;p style=&quot;margin: 0px 0px 0px 4px ; font-size: 15px&quot;&gt;&lt;font style=&quot;font-size: 15px&quot;&gt;&lt;br&gt;&lt;/font&gt;&lt;/p&gt;&lt;p style=&quot;margin: 0px 0px 0px 4px ; font-size: 15px&quot;&gt;&lt;br&gt;&lt;/p&gt;" style="verticalAlign=top;align=left;overflow=fill;fontSize=12;fontFamily=Helvetica;html=1;fillColor=#3399FF;" vertex="1" parent="1">
          <mxGeometry x="1375" y="925" width="430" height="63" as="geometry" />
        </mxCell>
        <mxCell id="XA2b0viagFyKYsldvcV_-5" value="&lt;p style=&quot;margin: 4px 0px 0px ; text-align: center&quot;&gt;&lt;font&gt;&lt;b&gt;&lt;font style=&quot;font-size: 18px&quot;&gt;FsmRxServiceProvider&lt;/font&gt;&lt;/b&gt;&lt;br&gt;&lt;/font&gt;&lt;/p&gt;&lt;hr size=&quot;1&quot; style=&quot;font-size: 15px&quot;&gt;&lt;p style=&quot;margin: 0px 0px 0px 4px&quot;&gt;&lt;br&gt;&lt;/p&gt;&lt;br&gt;&lt;p style=&quot;margin: 0px 0px 0px 4px ; font-size: 15px&quot;&gt;&lt;font style=&quot;font-size: 15px&quot;&gt;&lt;br&gt;&lt;/font&gt;&lt;/p&gt;&lt;p style=&quot;margin: 0px 0px 0px 4px ; font-size: 15px&quot;&gt;&lt;font style=&quot;font-size: 15px&quot;&gt;&lt;br&gt;&lt;/font&gt;&lt;/p&gt;&lt;p style=&quot;margin: 0px 0px 0px 4px ; font-size: 15px&quot;&gt;&lt;br&gt;&lt;/p&gt;" style="verticalAlign=top;align=left;overflow=fill;fontSize=12;fontFamily=Helvetica;html=1;fillColor=#3399FF;" vertex="1" parent="1">
          <mxGeometry x="1373" y="772" width="430" height="63" as="geometry" />
        </mxCell>
        <mxCell id="XA2b0viagFyKYsldvcV_-6" value="" style="endArrow=diamondThin;endFill=0;endSize=24;html=1;rounded=0;fontSize=18;exitX=1.003;exitY=0.667;exitDx=0;exitDy=0;exitPerimeter=0;" edge="1" parent="1" source="KA4gvwWlRoADxdi5hl8j-6">
          <mxGeometry width="160" relative="1" as="geometry">
            <mxPoint x="1284" y="802" as="sourcePoint" />
            <mxPoint x="1372" y="801.9999999999998" as="targetPoint" />
          </mxGeometry>
        </mxCell>
        <mxCell id="XA2b0viagFyKYsldvcV_-8" value="&lt;p style=&quot;margin: 4px 0px 0px ; text-align: center&quot;&gt;&lt;font&gt;&lt;b&gt;&lt;font style=&quot;font-size: 18px&quot;&gt;Ap_clServiceProvider&lt;/font&gt;&lt;/b&gt;&lt;br&gt;&lt;/font&gt;&lt;/p&gt;&lt;hr size=&quot;1&quot; style=&quot;font-size: 15px&quot;&gt;&lt;p style=&quot;margin: 0px 0px 0px 4px&quot;&gt;&lt;br&gt;&lt;/p&gt;&lt;br&gt;&lt;p style=&quot;margin: 0px 0px 0px 4px ; font-size: 15px&quot;&gt;&lt;font style=&quot;font-size: 15px&quot;&gt;&lt;br&gt;&lt;/font&gt;&lt;/p&gt;&lt;p style=&quot;margin: 0px 0px 0px 4px ; font-size: 15px&quot;&gt;&lt;font style=&quot;font-size: 15px&quot;&gt;&lt;br&gt;&lt;/font&gt;&lt;/p&gt;&lt;p style=&quot;margin: 0px 0px 0px 4px ; font-size: 15px&quot;&gt;&lt;br&gt;&lt;/p&gt;" style="verticalAlign=top;align=left;overflow=fill;fontSize=12;fontFamily=Helvetica;html=1;fillColor=#3399FF;" vertex="1" parent="1">
          <mxGeometry x="1373" y="581" width="430" height="83" as="geometry" />
        </mxCell>
        <mxCell id="XA2b0viagFyKYsldvcV_-9" value="&lt;p style=&quot;margin: 4px 0px 0px ; text-align: center&quot;&gt;&lt;font style=&quot;font-size: 18px&quot;&gt;&lt;b&gt;Ap_clConsumerService&lt;/b&gt;&lt;br&gt;&lt;/font&gt;&lt;/p&gt;&lt;hr size=&quot;1&quot;&gt;&lt;p style=&quot;margin: 0px 0px 0px 4px&quot;&gt;&lt;font size=&quot;3&quot;&gt;&lt;br&gt;&lt;/font&gt;&lt;/p&gt;&lt;font size=&quot;3&quot;&gt;&lt;br&gt;&lt;/font&gt;&lt;p style=&quot;margin: 0px 0px 0px 4px&quot;&gt;&lt;font size=&quot;3&quot;&gt;&lt;br&gt;&lt;/font&gt;&lt;/p&gt;&lt;p style=&quot;margin: 0px 0px 0px 4px&quot;&gt;&lt;font size=&quot;3&quot;&gt;&lt;br&gt;&lt;/font&gt;&lt;/p&gt;&lt;p style=&quot;margin: 0px 0px 0px 4px ; font-size: 15px&quot;&gt;&lt;br&gt;&lt;/p&gt;" style="verticalAlign=top;align=left;overflow=fill;fontSize=12;fontFamily=Helvetica;html=1;fillColor=#3399FF;" vertex="1" parent="1">
          <mxGeometry x="1370" y="371" width="430" height="80" as="geometry" />
        </mxCell>
        <mxCell id="XA2b0viagFyKYsldvcV_-12" value="" style="endArrow=diamondThin;endFill=0;endSize=24;html=1;rounded=0;fontSize=18;exitX=1.002;exitY=0.631;exitDx=0;exitDy=0;exitPerimeter=0;" edge="1" parent="1">
          <mxGeometry width="160" relative="1" as="geometry">
            <mxPoint x="1276.0840000000003" y="955.7830000000001" as="sourcePoint" />
            <mxPoint x="1376" y="955.8099999999997" as="targetPoint" />
          </mxGeometry>
        </mxCell>
        <mxCell id="XA2b0viagFyKYsldvcV_-13" value="" style="endArrow=diamondThin;endFill=0;endSize=24;html=1;rounded=0;fontSize=18;exitX=1.002;exitY=0.631;exitDx=0;exitDy=0;exitPerimeter=0;" edge="1" parent="1">
          <mxGeometry width="160" relative="1" as="geometry">
            <mxPoint x="1273.0840000000003" y="621.7830000000001" as="sourcePoint" />
            <mxPoint x="1373" y="621.8099999999997" as="targetPoint" />
          </mxGeometry>
        </mxCell>
        <mxCell id="XA2b0viagFyKYsldvcV_-14" value="" style="endArrow=diamondThin;endFill=0;endSize=24;html=1;rounded=0;fontSize=18;exitX=1.002;exitY=0.631;exitDx=0;exitDy=0;exitPerimeter=0;" edge="1" parent="1">
          <mxGeometry width="160" relative="1" as="geometry">
            <mxPoint x="1271.0040000000004" y="421.00300000000016" as="sourcePoint" />
            <mxPoint x="1370.9199999999996" y="421.02999999999975" as="targetPoint" />
          </mxGeometry>
        </mxCell>
      </root>
    </mxGraphModel>
  </diagram>
</mxfile>
